# xmcd CD database file
# Copyright (C) 1997 Ti Kan
# 
# Track frame offsets:
#     150
#     13847
#     26422
#     42038
#     53656
#     71104
#     84338
#     98165
#     110983
#     126399
# 
# Disc length: 1899 seconds
# 
# Revision: 1
# Processed by: cddbd v1.4b41PL1 Copyright (c) Steve Scherf et al.
# Submitted via: DiscPlay 4.0.2
# 
DISCID=8307690a
DTITLE=Jeff Silvey - Little Bit Of Faith
DYEAR=1900
DGENRE=
TTITLE0=Little Bit Of Faith
TTITLE1=You Get What You Pray For
TTITLE2=One Perfect Son
TTITLE3=That's The Way I'm Made
TTITLE4=Love Gives
TTITLE5=You  Give Me Hope
TTITLE6=Walkin' Do The Talkin'
TTITLE7=God Knows When
TTITLE8=Rough Out There
TTITLE9=A Nice Place To Visit
EXTD=
EXTT0=
EXTT1=
EXTT2=
EXTT3=
EXTT4=
EXTT5=
EXTT6=
EXTT7=
EXTT8=
EXTT9=
PLAYORDER=
